<?xml version="1.0" encoding="utf-8"?>
<!-- Generator: Adobe Illustrator 25.0.0, SVG Export Plug-In . SVG Version: 6.00 Build 0)  -->
<svg version="1.1" id="图层_1" xmlns="http://www.w3.org/2000/svg" xmlns:xlink="http://www.w3.org/1999/xlink" x="0px" y="0px"
	 viewBox="0 0 512 512" style="enable-background:new 0 0 512 512;" xml:space="preserve">
<style type="text/css">
	.st0{fill:none;}
	.st1{fill:#128F8A;}
	.st2{fill:#43C8A1;}
	.st3{fill:#46DCA5;}
	.st4{fill:#42C7A0;}
	.st5{fill:#FFFFFF;}
</style>
<rect x="0" class="st0" width="512" height="512"/>
<path class="st0" d="z"/>
<g id="LOGO_1_">
	<path class="st1" d="M301.1,213.7c-8.5,9.5-18.4,17.6-29.3,24.1c42.7,27.4,55,84.1,27.6,126.6s-84.1,55-126.8,27.8
		c-18.7-12.1-32.5-30.5-38.6-51.9l0.1,5.7c20.6,58.8,84.8,89.8,143.6,69.2c58.8-20.6,89.8-84.8,69.2-143.6
		C338.8,247.7,322.5,227.3,301.1,213.7L301.1,213.7z"/>
	<path class="st2" d="M332.4,160.4c-7.3,21.1-19,40.4-34.3,56.6c51.9,32.8,67.4,101.4,34.7,153.3c-27.9,44.2-82.8,63-131.9,45.1l0,0
		c44.8,1.4,82.2-33.9,83.6-78.7c1.4-44.8-33.9-82.2-78.7-83.6c-44.8-1.4-82.2,33.9-83.6,78.7c-0.8,25.1,10.2,49,29.4,65l1.5,1.6
		c14.2,12.7,30.7,22.6,48.8,29.1c76.8,27.9,162.5-11.6,191.1-88.3C417.9,272.9,392.6,198,332.4,160.4z M172.9,390.5
		c-30.3-10.8-46-44.3-35.1-74.5c11-30.2,44.3-46,74.5-35.1c30.2,11,46,44.3,35.1,74.5l0,0C236.5,385.7,203.2,401.3,172.9,390.5
		L172.9,390.5z"/>
	<path class="st1" d="M196.7,286.2c-25.3-9.1-53.1,4.1-62.2,29.4c-9.1,25.3,4.1,53.1,29.4,62.2s53.1-4.1,62.2-29.4l0,0
		C235.2,323,222.1,295.3,196.7,286.2C196.9,286.2,196.9,286.2,196.7,286.2z M202.4,344.6c-5.6,15.3-22.5,23.3-37.8,17.9
		c-15.3-5.4-23.3-22.5-17.7-37.8c5.6-15.3,22.5-23.3,37.8-17.9C200,312.3,208,329.3,202.4,344.6z"/>
	<path class="st3" d="M163.9,100c0,0-47,28.8-54.2,61.1c-4.7,21.4,54.4,100.4,129.6,84.1C286.9,234.9,346,173.9,334.1,83
		c-0.4-3.4-3.5-5.8-6.9-5.3c-0.9,0.1-1.8,0.4-2.6,0.9c-13.4,8.7-41.9,24-68.4,18.4C213,88.2,186.7,79.7,163.9,100z"/>
	<circle class="st4" cx="202.3" cy="141.1" r="65.7"/>
	<circle class="st5" cx="193.5" cy="140.9" r="51.9"/>
	<circle cx="164.8" cy="147" r="14.1"/>
</g>
<path class="st0" d="z"/>
</svg>
