<?xml version="1.0" encoding="utf-8"?>
<!-- Generator: Adobe Illustrator 25.0.0, SVG Export Plug-In . SVG Version: 6.00 Build 0)  -->
<svg version="1.1" id="图层_1" xmlns="http://www.w3.org/2000/svg" xmlns:xlink="http://www.w3.org/1999/xlink" x="0px" y="0px"
	 viewBox="0 0 124.8 40" style="enable-background:new 0 0 124.8 40;" xml:space="preserve">
<style type="text/css">
	.st0{fill:#1F9979;}
	.st1{fill:#43C8A1;}
	.st2{fill:#46DCA5;}
	.st3{fill:#42C7A0;}
	.st4{fill:#FFFFFF;}
</style>
<g>
	<g>
		<path class="st0" d="M31.8,17.3c-0.7,0.7-1.4,1.3-2.3,1.8c3.3,2,4.3,6.3,2.1,9.5c-2.1,3.2-6.5,4.1-9.8,2.1c-1.4-0.9-2.5-2.3-3-3.9
			v0.4c1.6,4.4,6.6,6.7,11.1,5.2s6.9-6.3,5.4-10.7C34.7,19.9,33.5,18.4,31.8,17.3z"/>
		<path class="st1" d="M34.2,13.4c-0.6,1.6-1.5,3-2.6,4.2c4,2.5,5.2,7.6,2.7,11.5c-2.2,3.3-6.4,4.7-10.2,3.4
			c3.5,0.1,6.4-2.5,6.5-5.9s-2.6-6.1-6.1-6.2c-3.5-0.1-6.4,2.5-6.5,5.9c-0.1,1.9,0.8,3.7,2.3,4.9l0.1,0.1c1.1,1,2.4,1.7,3.8,2.2
			c5.9,2.1,12.6-0.9,14.8-6.6C40.8,21.8,38.9,16.2,34.2,13.4z M21.9,30.6c-2.3-0.8-3.6-3.3-2.7-5.6c0.8-2.3,3.4-3.4,5.8-2.6
			c2.3,0.8,3.6,3.3,2.7,5.6C26.8,30.2,24.2,31.4,21.9,30.6z"/>
		<path class="st0" d="M23.7,22.8c-2-0.7-4.1,0.3-4.8,2.2c-0.7,1.9,0.3,4,2.3,4.6c2,0.7,4.1-0.3,4.8-2.2
			C26.7,25.5,25.7,23.4,23.7,22.8C23.8,22.8,23.8,22.8,23.7,22.8z M24.2,27.1c-0.4,1.1-1.7,1.7-2.9,1.3c-1.2-0.4-1.8-1.7-1.4-2.8
			c0.4-1.1,1.7-1.7,2.9-1.3C24,24.7,24.6,26,24.2,27.1z"/>
		<path class="st2" d="M21.2,8.8c-2.4,1.4-3.8,3-4.2,4.6c-0.4,1.6,4.2,7.5,10,6.3c3.7-0.8,8.2-5.3,7.3-12.1c0-0.3-0.3-0.4-0.5-0.4
			c-0.1,0-0.1,0-0.2,0.1c-1,0.6-3.2,1.8-5.3,1.4C25,8,23,7.3,21.2,8.8z"/>
		<path class="st3" d="M19.1,11.9c0,2.7,2.3,4.9,5.1,4.9s5.1-2.2,5.1-4.9C29.3,9.2,27,7,24.2,7S19.1,9.2,19.1,11.9z"/>
		<path class="st4" d="M19.5,11.9c0,2.1,1.8,3.9,4,3.9s4-1.7,4-3.9c0-2.1-1.8-3.9-4-3.9S19.5,9.8,19.5,11.9z"/>
		<path d="M20.2,12.3c0,0.6,0.5,1.1,1.1,1.1s1.1-0.5,1.1-1.1s-0.5-1.1-1.1-1.1C20.7,11.3,20.2,11.8,20.2,12.3z"/>
	</g>
	<path class="st4" d="M51.4,18h2.2v0.8c0.5-0.4,0.9-0.6,1.3-0.7c0.4-0.1,0.8-0.2,1.2-0.2c0.9,0,1.6,0.3,2.2,0.8
		c0.5,0.4,0.8,1.1,0.8,2v4.9H57v-3.3c0-0.9,0-1.5-0.1-1.8s-0.3-0.5-0.5-0.7s-0.5-0.2-0.8-0.2c-0.4,0-0.8,0.1-1.1,0.4
		s-0.5,0.6-0.6,1.1c-0.1,0.2-0.1,0.7-0.1,1.5v3h-2.2L51.4,18L51.4,18z M60.5,15.3h2.3l2.9,7.2l3-7.2H71l-4.2,10.1h-2.1L60.5,15.3z
		 M73.4,14.9c0.4,0,0.7,0.1,1,0.4c0.3,0.2,0.4,0.5,0.4,0.9c0,0.3-0.1,0.6-0.4,0.9c-0.3,0.2-0.6,0.4-1,0.4s-0.7-0.1-1-0.4
		c-0.3-0.2-0.4-0.5-0.4-0.9c0-0.3,0.1-0.6,0.4-0.9C72.7,15,73,14.9,73.4,14.9z M72.3,18h2.2v7.5h-2.2V18z M81.7,19l-1.3,1.2
		c-0.5-0.5-1-0.7-1.5-0.7c-0.2,0-0.4,0-0.6,0.1c-0.1,0.1-0.2,0.2-0.2,0.3c0,0.1,0,0.2,0.1,0.3c0.1,0.1,0.3,0.2,0.6,0.3l0.8,0.3
		c0.8,0.4,1.4,0.7,1.7,1.1c0.3,0.4,0.5,0.8,0.5,1.3c0,0.7-0.3,1.2-0.8,1.7c-0.6,0.4-1.3,0.7-2.3,0.7c-1.3,0-2.3-0.4-3-1.3L77,23
		c0.3,0.3,0.6,0.5,0.9,0.6c0.3,0.2,0.6,0.2,0.9,0.2s0.5-0.1,0.7-0.2s0.3-0.3,0.3-0.4c0-0.3-0.3-0.6-0.9-0.9L78.2,22
		c-1.4-0.6-2.1-1.4-2.1-2.3c0-0.6,0.3-1.1,0.8-1.5s1.2-0.6,2-0.6c0.6,0,1.1,0.1,1.6,0.3C80.9,18.3,81.4,18.6,81.7,19z M83.6,18h2.2
		v3.6c0,0.7,0.1,1.2,0.2,1.5s0.3,0.5,0.5,0.6c0.2,0.2,0.6,0.2,0.9,0.2c0.4,0,0.7-0.1,0.9-0.2c0.3-0.2,0.4-0.4,0.6-0.7
		c0.1-0.2,0.1-0.7,0.1-1.4v-3.7h2.2v3.2c0,1.3-0.1,2.2-0.4,2.7c-0.3,0.6-0.7,1-1.3,1.3c-0.6,0.3-1.3,0.5-2.2,0.5
		c-0.9,0-1.7-0.2-2.3-0.5c-0.6-0.4-1-0.9-1.2-1.5c-0.2-0.5-0.3-1.3-0.3-2.5V18H83.6z M99.7,18h2.2v7.5h-2.2v-0.8
		c-0.4,0.3-0.8,0.6-1.3,0.7c-0.4,0.2-0.9,0.2-1.4,0.2c-1.1,0-2.1-0.4-2.9-1.1s-1.2-1.7-1.2-2.8c0-1.2,0.4-2.1,1.2-2.8
		c0.8-0.7,1.7-1.1,2.9-1.1c0.5,0,1,0.1,1.5,0.3c0.5,0.2,0.9,0.4,1.3,0.8L99.7,18z M97.4,19.5c-0.7,0-1.2,0.2-1.7,0.6
		C95.3,20.5,95,21,95,21.7c0,0.6,0.2,1.2,0.7,1.6s1,0.6,1.7,0.6s1.2-0.2,1.7-0.6s0.7-1,0.7-1.6s-0.2-1.2-0.7-1.6
		C98.7,19.7,98.1,19.5,97.4,19.5z M103.8,15.1h2.2v10.4h-2.2V15.1z"/>
</g>
</svg>
