<svg xmlns="http://www.w3.org/2000/svg" xmlns:xlink="http://www.w3.org/1999/xlink" fill="none" version="1.1" width="15" height="15" viewBox="0 0 15 15"><g><path d="M5.31215,11.9962L1.59116,11.9962C0.712707,11.9962,0,11.1959,0,10.1977L0,1.79849C0,0.800377,0.712707,0,1.59116,0L12.2155,0C13.0939,0,13.8066,0.800377,13.8066,1.79849L13.8066,5.54614L12.7459,5.54614L12.7459,1.79849C12.7459,1.46893,12.5055,1.19586,12.2155,1.19586L1.59116,1.19586C1.3011,1.19586,1.06077,1.45951,1.06077,1.79849L1.06077,9.00188C1.06077,9.33145,1.3011,9.60452,1.59116,9.60452L8.91713,9.60452L8.91713,12.0056L8.49448,12.0056L8.49448,12.6083C8.4779,12.9379,8.25414,13.1921,7.96409,13.2109L5.84254,13.2109C5.55249,13.2109,5.31215,12.9473,5.31215,12.6083L5.31215,11.9962ZM10.6243,13.7947L3.18232,13.7947Q2.89227,13.7947,2.65193,14.3974L2.65193,15L11.1547,15L11.1547,14.3974C11.1547,14.0678,10.9144,13.7947,10.6243,13.7947ZM11.511,2.69303C11.3039,2.45763,10.9724,2.45763,10.7652,2.69303L9.02486,4.67985L7.80663,3.29567C7.69061,3.16384,7.52486,3.09793,7.35912,3.12618C7.19337,3.15443,7.05249,3.258,6.96961,3.4275L5.39503,6.5725L4.74033,4.7081C4.71547,4.63277,4.67403,4.56685,4.62431,4.51036C4.41713,4.27495,4.08564,4.27495,3.87845,4.51036L2.29558,6.32768C2.0884,6.56309,2.0884,6.94915,2.29558,7.18456C2.50276,7.41996,2.83425,7.41996,3.04144,7.18456L4.06077,6.01695L4.8232,8.19209C4.89779,8.40866,5.07182,8.54991,5.27901,8.56874C5.29558,8.56874,5.30387,8.56874,5.31215,8.56874C5.50276,8.56874,5.6768,8.45574,5.77624,8.26742L7.54972,4.72693L8.65193,5.97928C8.85912,6.21469,9.19061,6.21469,9.39779,5.97928L11.5193,3.55932C11.7182,3.3145,11.7182,2.93785,11.511,2.69303C11.511,2.70245,11.511,2.70245,11.511,2.69303ZM14.7514,8.83239L13.0442,8.83239L13.0442,6.89265C13.0442,6.742,12.9365,6.61017,12.7956,6.61017L12.1077,6.61017C11.9751,6.61017,11.8591,6.73258,11.8591,6.89265L11.8591,8.83239L10.1519,8.83239C10.0193,8.83239,9.90331,8.9548,9.90331,9.11488L9.90331,9.89642C9.90331,10.0471,10.011,10.1789,10.1519,10.1789L11.8591,10.1789L11.8591,12.1186C11.8591,12.2693,11.9669,12.4011,12.1077,12.4011L12.7956,12.4011C12.9282,12.4011,13.0442,12.2787,13.0442,12.1186L13.0442,10.1789L14.7514,10.1789C14.884,10.1789,15,10.0565,15,9.89642L15,9.11488C15,8.9548,14.8923,8.83239,14.7514,8.83239Z" fill="#444444" fill-opacity="1" style="mix-blend-mode:passthrough"/></g></svg>