<svg xmlns="http://www.w3.org/2000/svg" xmlns:xlink="http://www.w3.org/1999/xlink" fill="none" version="1.1" width="30" height="31.935546875" viewBox="0 0 30 31.935546875"><g><g><path d="M24.1969,4.79707C18.0569,-2.33122,7.03898,-1.37137,2.13285,6.71923C-2.77329,14.8098,1.16902,25.5183,10.0275,28.1634C18.886,30.8086,27.7195,23.915,27.717,14.3587C27.709,10.8329,26.457,7.4319,24.1969,4.79707ZM22.9733,22.3593C21.7503,21.8905,20.4907,21.5314,19.2085,21.286C19.7288,19.1615,20.0005,16.9798,20.0179,14.788L25.7781,14.788C25.6906,17.582,24.6956,20.2636,22.9545,22.3983L22.9733,22.3593ZM15.4436,26.6523C14.9259,26.7268,14.404,26.7659,13.8812,26.7693C13.3585,26.7658,12.8366,26.7267,12.3188,26.6523C11.0209,25.4548,10.0804,23.8975,9.60816,22.1641C10.9975,21.9432,12.4004,21.8258,13.8059,21.8129C15.2111,21.8194,16.6139,21.9302,18.0037,22.1446C17.5656,23.8971,16.6508,25.482,15.3683,26.7108L15.4436,26.6523ZM13.8812,20.7982C12.3873,20.8076,10.8962,20.9315,9.41992,21.1689C8.89587,19.0978,8.61772,16.9681,8.59166,14.827L19.152,14.827C19.1259,16.9681,18.8478,19.0978,18.3237,21.1689C16.8279,20.9417,15.3177,20.8308,13.8059,20.8372L13.8812,20.7982ZM4.73272,22.3788C3.00461,20.2589,2.01061,17.6005,1.9091,14.827L7.57516,14.827C7.59253,17.0189,7.86429,19.2006,8.3846,21.3251C7.11514,21.5728,5.86827,21.9318,4.65742,22.3983L4.73272,22.3788ZM4.84566,6.16302C6.07012,6.61756,7.32958,6.96354,8.61049,7.19724C8.06365,9.37041,7.77912,11.6055,7.7634,13.8514L1.81498,13.8514C1.92148,11.0227,2.95763,8.31682,4.75154,6.18253L4.84566,6.16302ZM12.3753,1.98711C12.8499,1.92471,13.3276,1.89213,13.8059,1.88955C14.3287,1.89284,14.8506,1.93195,15.3683,2.00663C16.6131,3.19416,17.5074,4.72338,17.9472,6.41669C16.5756,6.62174,15.1917,6.72607,13.8059,6.72891C12.4197,6.71961,11.0358,6.60876,9.66464,6.39718C10.1078,4.71089,11.0018,3.18883,12.2435,2.00663L12.3753,1.98711ZM13.8059,7.70459C15.2868,7.69956,16.7653,7.58216,18.2296,7.35334C18.7814,9.47948,19.0723,11.6693,19.0955,13.8709L8.51637,13.8709C8.53955,11.6693,8.83048,9.47948,9.38228,7.35334C10.8466,7.58209,12.3251,7.69949,13.8059,7.70459ZM20.0367,13.8709C20.021,11.625,19.7365,9.38992,19.1896,7.21675C20.4706,6.98305,21.73,6.63707,22.9545,6.18253C24.7524,8.32198,25.7888,11.0355,25.891,13.8709L20.0367,13.8709ZM22.145,5.40199C21.0943,5.77635,20.0184,6.06985,18.9261,6.2801C18.5205,4.87639,17.8836,3.55601,17.0437,2.37739C18.9522,2.93655,20.698,3.97549,22.1262,5.40199L22.145,5.40199ZM10.6058,2.35787C9.76593,3.53649,9.12907,4.85687,8.72343,6.26059C7.63109,6.05034,6.55519,5.75684,5.50451,5.38247C6.93803,3.95321,8.69062,2.91409,10.6058,2.35787ZM5.35391,23.1788C6.42775,22.7863,7.52906,22.4797,8.64814,22.2617C9.03834,23.7257,9.67566,25.1065,10.5305,26.34C8.5745,25.758,6.79322,24.6702,5.35391,23.1788ZM17.006,26.3596C17.8609,25.126,18.4983,23.7452,18.8885,22.2812C20.0075,22.4993,21.1088,22.8059,22.1827,23.1984C20.7429,24.689,18.9618,25.7767,17.006,26.3596Z" fill="#C8FFE2" fill-opacity="1" style="mix-blend-mode:passthrough"/></g><g><path d="M29.570134802856444,29.3287138684082L24.267694802856447,23.831775868408204C23.833734802856444,23.381893558408205,23.191804802856446,23.274940868408205,22.656316802856445,23.505822868408202C22.417229802856447,23.813100868408203,22.150303802856445,24.096611868408203,21.857175802856446,24.349563868408204C21.649202802856447,24.899603868408203,21.757283382856446,25.549813868408204,22.183054802856446,25.992903868408202L27.485494802856444,31.4898438684082C28.058654802856445,32.084033868408206,28.996984802856446,32.084033868408206,29.570134802856444,31.4898438684082C30.143284802856446,30.895663868408203,30.143284802856446,29.922903868408202,29.570134802856444,29.3287138684082Z" fill="#C8FFE2" fill-opacity="1" style="mix-blend-mode:passthrough"/></g></g></svg>