<svg xmlns="http://www.w3.org/2000/svg" xmlns:xlink="http://www.w3.org/1999/xlink" fill="none" version="1.1" width="28" height="28" viewBox="0 0 28 28"><g><g><path d="M26.2967,0L1.70333,0C0.762608,-1.12143e-7,0,0.762608,0,1.70333L0,26.2967C8.97145e-7,27.2374,0.762609,28,1.70333,28L26.2967,28C27.2374,28,28,27.2374,28,26.2967L28,1.70333C28,0.762609,27.2374,0,26.2967,0ZM1.70333,1.55556L26.2967,1.55556C26.3766,1.55946,26.4405,1.62339,26.4444,1.70333L26.4444,6.61111L1.55556,6.61111L1.55556,1.70333C1.55946,1.62339,1.62339,1.55946,1.70333,1.55556ZM26.2967,26.4444L1.70333,26.4444C1.62339,26.4405,1.55946,26.3766,1.55556,26.2967L1.55556,8.16667L26.4444,8.16667L26.4444,26.2967C26.4405,26.3766,26.3766,26.4405,26.2967,26.4444Z" fill="#C8FFE2" fill-opacity="1" style="mix-blend-mode:passthrough"/></g><g><path d="M5.289156650772094,3.811359713897705Q5.289156650772094,3.910969713897705,5.269726650772094,4.008659713897705Q5.2502966507720945,4.106359713897705,5.212176650772095,4.198389713897705Q5.174056650772094,4.290419713897705,5.118716650772095,4.373239713897705Q5.063366650772094,4.456059713897705,4.992936650772094,4.526499713897705Q4.922496650772095,4.596929713897705,4.839676650772095,4.652269713897705Q4.756846650772095,4.707609713897705,4.664816650772095,4.745729713897705Q4.572786650772095,4.783849713897705,4.475086650772095,4.803279713897705Q4.377386650772094,4.822719713897705,4.277776650772095,4.822719713897705Q4.178164650772095,4.822719713897705,4.080466650772094,4.803279713897705Q3.982767650772095,4.783849713897705,3.8907376507720945,4.745729713897705Q3.7987076507720947,4.707609713897705,3.7158826507720946,4.652269713897705Q3.6330586507720946,4.596929713897705,3.562621650772095,4.526499713897705Q3.492184650772095,4.456059713897705,3.436842650772095,4.373239713897705Q3.381500650772095,4.290419713897705,3.343381050772095,4.198389713897705Q3.305260950772095,4.106359713897705,3.2858274507720946,4.008659713897705Q3.2663940147720947,3.910969713897705,3.2663940147720947,3.811359713897705Q3.2663940147720947,3.7117477138977053,3.2858274507720946,3.6140517138977053Q3.305260950772095,3.5163557138977053,3.343381050772095,3.4243277138977053Q3.381500650772095,3.3322997138977053,3.436842650772095,3.249477713897705Q3.492184650772095,3.1666547138977053,3.562621650772095,3.096219713897705Q3.6330586507720946,3.025784713897705,3.7158826507720946,2.970444713897705Q3.7987076507720947,2.915103713897705,3.8907376507720945,2.876984713897705Q3.982767650772095,2.838865613897705,4.080466650772094,2.819432713897705Q4.178164650772095,2.799999713897705,4.277776650772095,2.799999713897705Q4.377386650772094,2.799999713897705,4.475086650772095,2.819432713897705Q4.572786650772095,2.838865613897705,4.664816650772095,2.876984713897705Q4.756846650772095,2.915103713897705,4.839676650772095,2.970444713897705Q4.922496650772095,3.025784713897705,4.992936650772094,3.096219713897705Q5.063366650772094,3.1666547138977053,5.118716650772095,3.249477713897705Q5.174056650772094,3.3322997138977053,5.212176650772095,3.4243277138977053Q5.2502966507720945,3.5163557138977053,5.269726650772094,3.6140517138977053Q5.289156650772094,3.7117477138977053,5.289156650772094,3.811359713897705Z" fill="#C8FFE2" fill-opacity="1" style="mix-blend-mode:passthrough"/></g><g><path d="M8.555823301544189,3.811359713897705Q8.555823301544189,3.910969713897705,8.536393301544189,4.008659713897705Q8.51696330154419,4.106359713897705,8.47884330154419,4.198389713897705Q8.440723301544189,4.290419713897705,8.38538330154419,4.373239713897705Q8.330033301544189,4.456059713897705,8.259603301544189,4.526499713897705Q8.18916330154419,4.596929713897705,8.10634330154419,4.652269713897705Q8.02351330154419,4.707609713897705,7.93148330154419,4.745729713897705Q7.839453301544189,4.783849713897705,7.74175330154419,4.803279713897705Q7.644053301544189,4.822719713897705,7.54444330154419,4.822719713897705Q7.444831301544189,4.822719713897705,7.347133301544189,4.803279713897705Q7.2494343015441896,4.783849713897705,7.157404301544189,4.745729713897705Q7.065374301544189,4.707609713897705,6.982549301544189,4.652269713897705Q6.89972530154419,4.596929713897705,6.82928830154419,4.526499713897705Q6.75885130154419,4.456059713897705,6.703509301544189,4.373239713897705Q6.6481673015441896,4.290419713897705,6.61004770154419,4.198389713897705Q6.571927601544189,4.106359713897705,6.552494101544189,4.008659713897705Q6.533060665544189,3.910969713897705,6.533060665544189,3.811359713897705Q6.533060665544189,3.7117477138977053,6.552494101544189,3.6140517138977053Q6.571927601544189,3.5163557138977053,6.61004770154419,3.4243277138977053Q6.6481673015441896,3.3322997138977053,6.703509301544189,3.249477713897705Q6.75885130154419,3.1666547138977053,6.82928830154419,3.096219713897705Q6.89972530154419,3.025784713897705,6.982549301544189,2.970444713897705Q7.065374301544189,2.915103713897705,7.157404301544189,2.876984713897705Q7.2494343015441896,2.838865613897705,7.347133301544189,2.819432713897705Q7.444831301544189,2.799999713897705,7.54444330154419,2.799999713897705Q7.644053301544189,2.799999713897705,7.74175330154419,2.819432713897705Q7.839453301544189,2.838865613897705,7.93148330154419,2.876984713897705Q8.02351330154419,2.915103713897705,8.10634330154419,2.970444713897705Q8.18916330154419,3.025784713897705,8.259603301544189,3.096219713897705Q8.330033301544189,3.1666547138977053,8.38538330154419,3.249477713897705Q8.440723301544189,3.3322997138977053,8.47884330154419,3.4243277138977053Q8.51696330154419,3.5163557138977053,8.536393301544189,3.6140517138977053Q8.555823301544189,3.7117477138977053,8.555823301544189,3.811359713897705Z" fill="#C8FFE2" fill-opacity="1" style="mix-blend-mode:passthrough"/></g><g><path d="M11.82248828338623,3.811359713897705Q11.82248828338623,3.910969713897705,11.80305828338623,4.008659713897705Q11.78362828338623,4.106359713897705,11.745508283386231,4.198389713897705Q11.70738828338623,4.290419713897705,11.65204828338623,4.373239713897705Q11.59669828338623,4.456059713897705,11.52626828338623,4.526499713897705Q11.45582828338623,4.596929713897705,11.37300828338623,4.652269713897705Q11.290178283386231,4.707609713897705,11.19814828338623,4.745729713897705Q11.10611828338623,4.783849713897705,11.00841828338623,4.803279713897705Q10.910718283386231,4.822719713897705,10.81110828338623,4.822719713897705Q10.71149628338623,4.822719713897705,10.613798283386231,4.803279713897705Q10.51609928338623,4.783849713897705,10.424069283386231,4.745729713897705Q10.33203928338623,4.707609713897705,10.24921428338623,4.652269713897705Q10.16639028338623,4.596929713897705,10.09595328338623,4.526499713897705Q10.02551628338623,4.456059713897705,9.97017428338623,4.373239713897705Q9.91483228338623,4.290419713897705,9.87671268338623,4.198389713897705Q9.83859258338623,4.106359713897705,9.81915908338623,4.008659713897705Q9.79972564738623,3.910969713897705,9.79972564738623,3.811359713897705Q9.79972564738623,3.7117477138977053,9.81915908338623,3.6140517138977053Q9.83859258338623,3.5163557138977053,9.87671268338623,3.4243277138977053Q9.91483228338623,3.3322997138977053,9.97017428338623,3.249477713897705Q10.02551628338623,3.1666547138977053,10.09595328338623,3.096219713897705Q10.16639028338623,3.025784713897705,10.24921428338623,2.970444713897705Q10.33203928338623,2.915103713897705,10.424069283386231,2.876984713897705Q10.51609928338623,2.838865613897705,10.613798283386231,2.819432713897705Q10.71149628338623,2.799999713897705,10.81110828338623,2.799999713897705Q10.910718283386231,2.799999713897705,11.00841828338623,2.819432713897705Q11.10611828338623,2.838865613897705,11.19814828338623,2.876984713897705Q11.290178283386231,2.915103713897705,11.37300828338623,2.970444713897705Q11.45582828338623,3.025784713897705,11.52626828338623,3.096219713897705Q11.59669828338623,3.1666547138977053,11.65204828338623,3.249477713897705Q11.70738828338623,3.3322997138977053,11.745508283386231,3.4243277138977053Q11.78362828338623,3.5163557138977053,11.80305828338623,3.6140517138977053Q11.82248828338623,3.7117477138977053,11.82248828338623,3.811359713897705Z" fill="#C8FFE2" fill-opacity="1" style="mix-blend-mode:passthrough"/></g><g><path d="M8.917134159851074,18.35425885559082L6.654354159851074,18.35425885559082L6.654354159851074,20.53332885559082L5.133334159851074,20.53332885559082L5.133334159851074,14.931398855590821L6.654354159851074,14.931398855590821L6.654354159851074,16.80192885559082L8.166004159851074,16.80192885559082L8.166004159851074,14.62287885559082L5.133334159851074,14.62287885559082L5.133334159851074,13.070478855590821L8.917134159851074,13.070478855590821C9.073534159851075,13.070478855590821,9.239484159851074,13.160558855590821,9.414784159851074,13.340458855590821C9.589954159851075,13.52046885559082,9.677704159851075,13.68755885559082,9.677704159851075,13.84182885559082L9.677704159851075,17.57323885559082C9.677704159851075,17.76607885559082,9.597884159851073,17.94445885559082,9.438274159851074,18.10833885559082C9.278634159851073,18.27229885559082,9.104954159851074,18.35420885559082,8.917134159851074,18.35425885559082L8.917134159851074,18.35425885559082ZM10.428804159851074,12.44379885559082L10.428804159851074,11.19999885559082L11.949854159851075,11.19999885559082L11.949854159851075,12.44379885559082L10.428804159851074,12.44379885559082ZM10.428804159851074,18.35425885559082L10.428804159851074,13.070478855590821L11.949854159851075,13.070478855590821L11.949854159851075,18.354238855590822L10.428804159851074,18.35425885559082ZM15.733734159851075,18.35425885559082L15.733734159851075,14.62284885559082L12.701004159851074,14.62284885559082L12.701004159851074,13.070478855590821L16.484834159851076,13.070478855590821C16.691434159851074,13.070478855590821,16.869834159851074,13.14446885559082,17.020034159851072,13.29224885559082C17.170234159851073,13.44018885559082,17.245334159851076,13.62338885559082,17.245334159851076,13.84182885559082L17.245334159851076,18.354238855590822L15.733734159851075,18.35425885559082ZM12.701004159851074,18.35425885559082L12.701004159851074,14.931398855590821L14.222044159851075,14.931398855590821L14.222044159851075,18.35425885559082L12.701004159851074,18.35425885559082ZM21.639434159851074,20.53332885559082L18.569234159851074,20.53332885559082L17.555234159851075,18.98095885559082L20.888334159851077,18.98095885559082L20.888334159851077,18.354238855590822L18.616234159851075,18.354238855590822C18.409634159851073,18.354238855590822,18.231234159851073,18.277098855590822,18.08103415985107,18.12286885559082C17.930734159851074,17.96858885559082,17.855634159851075,17.78538885559082,17.855634159851075,17.57327885559082L17.855634159851075,14.931398855590821L19.376734159851075,14.931398855590821L19.376734159851075,16.80192885559082L20.888334159851077,16.80192885559082L20.888334159851077,14.62287885559082L17.855634159851075,14.62287885559082L17.855634159851075,13.84185885559082C17.855634159851075,13.63619885559082,17.930734159851074,13.45618885559082,18.080934159851076,13.30190885559082C18.231234159851073,13.14763885559082,18.409634159851073,13.07051885559082,18.61613415985107,13.07051885559082L22.400034159851074,13.07051885559082L22.400034159851074,19.75235885559082C22.400034159851074,19.964488855590822,22.324834159851076,20.147688855590822,22.174634159851074,20.30191885559082C22.024434159851076,20.456168855590818,21.846034159851076,20.53332885559082,21.639434159851074,20.53332885559082Z" fill="#C8FFE2" fill-opacity="1" style="mix-blend-mode:passthrough"/></g></g></svg>