<svg xmlns="http://www.w3.org/2000/svg" xmlns:xlink="http://www.w3.org/1999/xlink" fill="none" version="1.1" width="33.63623046875" height="30" viewBox="0 0 33.63623046875 30"><g><g><path d="M28.9513,9.84961C26.8601,4.10273,21.3699,0,14.9274,0C6.68414,0,0,6.71667,0,15C0,23.2833,6.68414,30,14.9274,30C15.6145,30,16.2908,29.9533,16.9533,29.863C16.2094,29.1802,15.5708,28.3836,15.0649,27.5003C13.5249,27.5166,11.956,27.244,10.4326,26.65L10.416,26.5333C10.1672,25.3333,10.0511,24.0333,10.0843,22.7333C11.2854,23.0415,12.5259,23.231,13.7906,23.3017C13.7744,23.0698,13.7661,22.8357,13.7661,22.5996L13.7661,20.7735C12.661,20.662,11.4933,20.3985,10.3165,20.0167C10.6482,17.95,11.3282,15.9167,12.3234,14.1833C12.9536,13.1,13.8327,12.0333,14.8776,11.0167L15.0435,10.8667C15.5888,11.4763,16.1687,12.0493,16.7791,12.5834C17.4501,11.9369,18.2125,11.3857,19.0451,10.9512C18.3795,10.3763,17.7566,9.74675,17.1831,9.06667C19.0739,7.66667,21.1803,6.51667,23.1042,5.83333L23.3199,5.76667C24.576,6.92723,25.5707,8.32031,26.2605,9.84961L28.9513,9.84961ZM13.7995,2.55C14.181,2.51667,14.5459,2.5,14.9274,2.5C17.0172,2.5,19.0739,3.03333,20.9149,4.03333C19.0075,4.7,17.2162,5.65,15.5908,6.85C14.8113,5.51667,14.1976,4.08333,13.7995,2.55ZM10.7145,3.25L10.7809,3.21667C11.3614,5.18333,12.2404,7.05,13.3849,8.75C12.1409,10,11.0628,11.4167,10.1838,12.95C9.07252,14.8833,8.30957,16.95,7.89492,19.0833C5.88802,18.1667,3.98063,17,2.52107,15.7833C2.17276,10.2333,5.52312,5.13333,10.7145,3.25ZM3.51622,19.95L3.36695,19.6167Q5.30751,21.0167,7.54661,21.9167C7.49685,22.9833,7.53003,24.0667,7.64613,25.1333C5.83826,23.8,4.41186,22.0167,3.51622,19.95Z" fill-rule="evenodd" fill="#FFFFFF" fill-opacity="1" style="mix-blend-mode:passthrough"/></g><g><path d="M20.18826920715332,15.330691734924317C20.67157920715332,14.050958734924317,21.90310920715332,13.133301734924316,23.35301920715332,13.133301734924316C24.79316920715332,13.133301734924316,26.03394920715332,14.054887734924316,26.51890920715332,15.338911734924316C26.594509207153322,15.324251734924317,26.67280920715332,15.316571734924317,26.753109207153322,15.316571734924317L32.32600920715332,15.316571734924317C32.98950920715332,15.316571734924317,33.536809207153325,15.849901734924316,33.536809207153325,16.533241734924317C33.52020920715332,17.216571734924315,32.98950920715332,17.749901734924315,32.32600920715332,17.749901734924315L26.753109207153322,17.749901734924315C26.67320920715332,17.749901734924315,26.59490920715332,17.742151734924317,26.51900920715332,17.727321734924317C26.034189207153318,19.011541734924315,24.79330920715332,19.933301734924317,23.35301920715332,19.933301734924317C21.91339920715332,19.933301734924317,20.67300920715332,19.022401734924316,20.18766920715332,17.735871734924316C20.12727920715332,17.745121734924318,20.06547920715332,17.749901734924315,20.00263920715332,17.749901734924315L17.34888920715332,17.749901734924315C16.68544620715332,17.749901734924315,16.13810920715332,17.216571734924315,16.13810920715332,16.533241734924317C16.13810920715332,15.866571734924317,16.66885920715332,15.316571734924317,17.34888920715332,15.316571734924317L20.00263920715332,15.316571734924317C20.06568920715332,15.316571734924317,20.12768920715332,15.321391734924315,20.18826920715332,15.330691734924317ZM21.76075920715332,16.549971734924316C21.76075920715332,17.433301734924317,22.47395920715332,18.149971734924318,23.35301920715332,18.149971734924318C24.23206920715332,18.149971734924318,24.94526920715332,17.433301734924317,24.94526920715332,16.549971734924316C24.94526920715332,15.666631734924316,24.23206920715332,14.949971734924317,23.35301920715332,14.949971734924317C22.47395920715332,14.949971734924317,21.76075920715332,15.666631734924316,21.76075920715332,16.549971734924316ZM29.60190920715332,26.138201734924316C29.11810920715332,27.416801734924316,27.887109207153323,28.333401734924315,26.43800920715332,28.333401734924315C24.98509920715332,28.333401734924315,23.75146920715332,27.411901734924317,23.270279207153322,26.128001734924318C23.19527920715332,26.142401734924317,23.11761920715332,26.150001734924317,23.03789920715332,26.150001734924317L17.465019207153322,26.150001734924317C16.80158020715332,26.150001734924317,16.25424320715332,25.616601734924316,16.25424320715332,24.933301734924317C16.27083020715332,24.250001734924318,16.80158220715332,23.716601734924318,17.465019207153322,23.716601734924318L23.03789920715332,23.716601734924318C23.11788920715332,23.716601734924318,23.19618920715332,23.724401734924317,23.27203920715332,23.739201734924315C23.75692920715332,22.455071734924317,24.99777920715332,21.533371734924316,26.43800920715332,21.533371734924316C27.87670920715332,21.533371734924316,29.11650920715332,22.443141734924318,29.602509207153318,23.72840173492432C29.65780920715332,23.720601734924315,29.71430920715332,23.716601734924318,29.771809207153318,23.716601734924318L32.42560920715332,23.716601734924318C33.089009207153325,23.716601734924318,33.63640920715332,24.250001734924318,33.63640920715332,24.933301734924317C33.63640920715332,25.600001734924316,33.10560920715332,26.150001734924317,32.42560920715332,26.150001734924317L29.771809207153318,26.150001734924317C29.71420920715332,26.150001734924317,29.657509207153318,26.145901734924315,29.60190920715332,26.138201734924316ZM28.030309207153323,24.916701734924317C28.030309207153323,24.03340173492432,27.317109207153322,23.316701734924315,26.43800920715332,23.316701734924315C25.558969207153318,23.316701734924315,24.84576920715332,24.03340173492432,24.84576920715332,24.916701734924317C24.84576920715332,25.800001734924315,25.558969207153318,26.516701734924318,26.43800920715332,26.516701734924318C27.317109207153322,26.516701734924318,28.030309207153323,25.800001734924315,28.030309207153323,24.916701734924317Z" fill-rule="evenodd" fill="#FFFFFF" fill-opacity="1" style="mix-blend-mode:passthrough"/></g></g></svg>