<svg xmlns="http://www.w3.org/2000/svg" xmlns:xlink="http://www.w3.org/1999/xlink" fill="none" version="1.1" width="23" height="30" viewBox="0 0 23 30"><g><g><path d="M22.9985,5.948685442886353C22.9984,5.946615442886353,22.9981,5.944565442886352,22.998,5.942495442886353C22.9968,5.922715442886353,22.9948,5.903075442886353,22.9923,5.883685442886352C22.9919,5.8808654428863525,22.9916,5.878085442886353,22.9912,5.875275442886353C22.9789,5.784295442886353,22.9532,5.697555442886353,22.9161,5.616795442886352C22.9159,5.616445442886352,22.9158,5.6160854428863525,22.9155,5.615705442886353C22.8972,5.575785442886352,22.876,5.537315442886353,22.8524,5.500595442886352C22.8498,5.496595442886353,22.8472,5.492595442886352,22.8445,5.488655442886352C22.8342,5.473145442886352,22.8236,5.457835442886353,22.8123,5.443025442886353C22.8081,5.437515442886353,22.8038,5.432155442886352,22.7996,5.426765442886352C22.7911,5.416075442886353,22.7824,5.405535442886353,22.7735,5.395225442886352C22.7671,5.387705442886353,22.7605,5.380305442886352,22.7538,5.373015442886352C22.7475,5.366175442886353,22.7411,5.359575442886353,22.7346,5.352935442886353C22.7276,5.345685442886353,22.7209,5.338225442886353,22.7137,5.3311754428863525L17.4527,0.2787614428863525C17.3037,0.13116544288635254,17.105,0.03186974288635254,16.883,0.006549752886352539C16.8824,0.006490522886352539,16.8818,0.006431292886352539,16.8812,0.0063720628863525395C16.8595,0.003943712886352539,16.8377,0.002078032886352539,16.8159,0.0011007828863525391C16.811,0.000893477886352539,16.8061,0.000923093886352539,16.8013,0.000745407886352539C16.7911,0.00044926788635253905,16.7809,-0.000024557113647460938,16.7707,-0.000024557113647460938L0.958426,-0.00002453903874746094C0.429003,-0.00002453903874746094,0,0.41933944288635255,0,0.9373764428863526L0,29.062675442886352C0,29.580675442886353,0.429003,29.999975442886353,0.958426,29.999975442886353L22.0416,29.999975442886353C22.5711,29.999975442886353,23,29.580675442886353,23,29.062675442886352L23,6.000535442886353C23,5.983125442886353,22.9994,5.965825442886352,22.9985,5.948685442886353ZM17.7292,3.1723154428863527L19.6976,5.062695442886352L17.7292,5.062695442886352L17.7292,3.1723154428863527ZM21.0831,28.124775442886353L1.9164,28.124775442886353L1.9164,1.8747454428863526L15.8123,1.8747454428863526L15.8123,6.000535442886353C15.8123,6.518545442886353,16.2421,6.937905442886352,16.7707,6.937905442886352L21.0832,6.937905442886352L21.0831,28.124775442886353Z" fill="#C8FFE2" fill-opacity="1" style="mix-blend-mode:passthrough"/></g><g><g><path d="M3.70701265335083,10.206843615875243L7.25627265335083,11.546013615875244L7.25627265335083,10.419403615875243L5.83091265335083,9.941673615875244L5.32239265335083,9.766213615875245L5.8293726533508305,9.591283615875245L7.25627265335083,9.113013615875245L7.25627265335083,7.992483615875244L3.70701265335083,9.331683615875244L3.70701265335083,10.206843615875243Z" fill="#C8FFE2" fill-opacity="1" style="mix-blend-mode:passthrough"/></g><g><path d="M8.573875427246094,13.334518761749267L9.557261427246093,13.334518761749267L11.188665427246093,6.987148761749268L10.205305427246094,6.987148761749268L8.573875427246094,13.334518761749267Z" fill="#C8FFE2" fill-opacity="1" style="mix-blend-mode:passthrough"/></g><g><path d="M12.593209266662598,7.992483615875244L12.593209266662598,9.113223615875244L14.024799266662598,9.590753615875244L14.533329266662598,9.766213615875245L14.026589266662597,9.941053615875244L12.593209266662598,10.419233615875244L12.593209266662598,11.546013615875244L16.142469266662598,10.206843615875243L16.142469266662598,9.331683615875244L12.593209266662598,7.992483615875244Z" fill="#C8FFE2" fill-opacity="1" style="mix-blend-mode:passthrough"/></g><g><path d="M3.8648398518562317,15.872615337371826L7.880239851856231,15.872615337371826L7.880239851856231,17.284375337371827L3.8648398518562317,17.284375337371827L3.8648398518562317,15.872615337371826Z" fill="#C8FFE2" fill-opacity="1" style="mix-blend-mode:passthrough"/></g><g><path d="M9.044772148132324,15.872615337371826L19.364572148132325,15.872615337371826L19.364572148132325,17.284375337371827L9.044773331432324,17.284375337371827L9.044772148132324,15.872615337371826Z" fill="#C8FFE2" fill-opacity="1" style="mix-blend-mode:passthrough"/></g><g><path d="M3.8648398518562317,21.7663311958313L7.880239851856231,21.7663311958313L7.880239851856231,23.1780911958313L3.8648398518562317,23.1780911958313L3.8648398518562317,21.7663311958313Z" fill="#C8FFE2" fill-opacity="1" style="mix-blend-mode:passthrough"/></g><g><path d="M9.044772148132324,21.7663311958313L19.364572148132325,21.7663311958313L19.364572148132325,23.1780911958313L9.044773331432324,23.1780911958313L9.044772148132324,21.7663311958313Z" fill="#C8FFE2" fill-opacity="1" style="mix-blend-mode:passthrough"/></g><g><path d="M3.8849542886018753,18.666693210601807L11.654964288601875,18.666693210601807L11.654964288601875,20.078513210601805L3.8849548802528755,20.078513210601805L3.8849542886018753,18.666693210601807Z" fill="#C8FFE2" fill-opacity="1" style="mix-blend-mode:passthrough"/></g><g><path d="M13.04029655456543,18.666693210601807L19.36461655456543,18.666693210601807L19.36461655456543,20.078513210601805L13.04029655456543,20.078513210601805L13.04029655456543,18.666693210601807Z" fill="#C8FFE2" fill-opacity="1" style="mix-blend-mode:passthrough"/></g></g></g></svg>