<svg xmlns="http://www.w3.org/2000/svg" xmlns:xlink="http://www.w3.org/1999/xlink" fill="none" version="1.1" width="32" height="29" viewBox="0 0 32 29"><g><g><g><path d="M14.9624153230896,16.128681411972046C14.8573913230896,16.128681411972046,14.7487463230896,16.087961411972046,14.6654513230896,16.010211411972044C14.4843761230896,15.839921411972046,14.4735115230896,15.554871411972046,14.636479323089599,15.373471411972046L20.4308863230896,8.906075411972045C20.5974763230896,8.720975611972046,20.8763363230896,8.709869611972046,21.0537863230896,8.876459411972046C21.234866323089598,9.046751411972046,21.2457263230896,9.331805411972045,21.082756323089598,9.513203411972047L15.288350323089599,15.980601411972046C15.2014343230896,16.080551411972046,15.0819243230896,16.128681411972046,14.9624153230896,16.128681411972046Z" fill="#C8FFE2" fill-opacity="1"/></g><g><path d="M25.68928723373413,19.134745405578613C25.64948723373413,19.134745405578613,25.609587233734132,19.131045405578615,25.57338723373413,19.119945405578612L14.455396233734131,16.002856405578612C14.219998133734132,15.936220405578613,14.08238093373413,15.688186405578612,14.147568033734132,15.447556405578613C14.212755133734131,15.206925805578614,14.455396233734131,15.066249805578613,14.690794233734131,15.132885805578614L25.80878723373413,18.249975405578613C26.04418723373413,18.316605405578613,26.18178723373413,18.564635405578613,26.116687233734133,18.805275405578612C26.062287233734132,19.005175405578612,25.88128723373413,19.134745405578613,25.68928723373413,19.134745405578613Z" fill="#C8FFE2" fill-opacity="1"/></g><g><path d="M18.927954963531494,15.751023556365967Q18.927954963531494,15.950353556365966,18.908844963531493,16.148723556365965Q18.889734963531495,16.347083556365966,18.851694963531493,16.54258355636597Q18.813644963531495,16.738083556365968,18.757044963531495,16.928823556365966Q18.700444963531496,17.119573556365967,18.625824963531493,17.303723556365966Q18.551204963531493,17.48787355636597,18.459284963531495,17.663673556365968Q18.367364963531493,17.839463556365967,18.259034963531494,18.005193556365967Q18.150694963531492,18.170923556365967,18.026994963531493,18.325013556365967Q17.903294963531494,18.479093556365967,17.765414963531494,18.620033556365968Q17.627534963531495,18.760983556365968,17.476804963531492,18.887433556365966Q17.326064963531493,19.01388355636597,17.163934963531496,19.124623556365968Q17.001804963531495,19.235363556365968,16.829834963531496,19.329323556365967Q16.657874963531494,19.423293556365966,16.477724963531493,19.499573556365966Q16.297574963531495,19.575853556365967,16.110974963531493,19.63371355636597Q15.924374963531495,19.691573556365967,15.733134963531494,19.73046355636597Q15.541884963531494,19.769343556365968,15.347834963531493,19.788883556365967Q15.153774963531493,19.808423556365966,14.958784963531494,19.808423556365966Q14.763794963531494,19.808423556365966,14.569734963531495,19.788883556365967Q14.375684963531494,19.769343556365968,14.184434963531494,19.730453556365966Q13.993194963531494,19.691573556365967,13.806594963531495,19.63371355636597Q13.619994963531495,19.575853556365967,13.439844963531494,19.499573556365966Q13.259704963531494,19.423293556365966,13.087734963531494,19.329323556365967Q12.915764963531494,19.235363556365968,12.753634963531495,19.124623556365968Q12.591504963531495,19.01388355636597,12.440774963531494,18.887433556365966Q12.290034963531493,18.760983556365968,12.152154963531494,18.620033556365968Q12.014274963531495,18.479093556365967,11.890574963531494,18.325013556365967Q11.766872963531494,18.170923556365967,11.658540963531495,18.005193556365967Q11.550208963531494,17.839463556365967,11.458289963531493,17.663673556365968Q11.366370963531494,17.48787355636597,11.291749963531494,17.303723556365966Q11.217129963531494,17.119573556365967,11.160525963531494,16.928823556365966Q11.103922963531494,16.738083556365968,11.065881463531493,16.54258355636597Q11.027840263531495,16.347083556365966,11.008727563531494,16.148723556365965Q10.989614963531494,15.950353556365966,10.989614963531494,15.751023556365967Q10.989614963531494,15.551703556365966,11.008727563531494,15.353333556365968Q11.027840263531495,15.154963556365967,11.065881463531493,14.959473556365968Q11.103922963531494,14.763973556365967,11.160525963531494,14.573223556365967Q11.217129963531494,14.382483556365967,11.291749963531494,14.198333556365967Q11.366370963531494,14.014173556365966,11.458289963531493,13.838383556365967Q11.550208963531494,13.662593556365966,11.658540963531495,13.496863556365966Q11.766872963531494,13.331123556365966,11.890574963531494,13.177043556365966Q12.014274963531495,13.022963556365967,12.152154963531494,12.882013556365967Q12.290034963531493,12.741073556365967,12.440774963531494,12.614619556365966Q12.591504963531495,12.488167556365967,12.753634963531495,12.377427556365967Q12.915764963531494,12.266687556365966,13.087734963531494,12.172725556365966Q13.259704963531494,12.078763556365967,13.439844963531494,12.002484556365967Q13.619994963531495,11.926205556365966,13.806594963531495,11.868343556365966Q13.993194963531494,11.810481556365966,14.184434963531494,11.771595256365966Q14.375684963531494,11.732708456365966,14.569734963531495,11.713171056365967Q14.763794963531494,11.693633556365967,14.958784963531494,11.693633556365967Q15.153774963531493,11.693633556365967,15.347834963531493,11.713171056365967Q15.541884963531494,11.732708456365966,15.733134963531494,11.771595256365966Q15.924374963531495,11.810481556365966,16.110974963531493,11.868343556365966Q16.297574963531495,11.926205556365966,16.477724963531493,12.002484556365967Q16.657874963531494,12.078763556365967,16.829844963531492,12.172725556365966Q17.001804963531495,12.266687556365966,17.163934963531496,12.377427556365967Q17.326074963531493,12.488167556365967,17.476804963531492,12.614619556365966Q17.627534963531495,12.741073556365967,17.765414963531494,12.882013556365967Q17.903294963531494,13.022963556365967,18.026994963531493,13.177043556365966Q18.150694963531492,13.331123556365966,18.259034963531494,13.496863556365966Q18.367364963531493,13.662593556365966,18.459284963531495,13.838383556365967Q18.551204963531493,14.014173556365966,18.625824963531493,14.198333556365967Q18.700444963531496,14.382483556365967,18.757044963531495,14.573223556365967Q18.813644963531495,14.763973556365967,18.851694963531493,14.959473556365968Q18.889734963531495,15.154963556365967,18.908844963531493,15.353333556365968Q18.927954963531494,15.551703556365966,18.927954963531494,15.751023556365967Z" fill="#C8FFE2" fill-opacity="1"/></g><g><path d="M9.362296551574707,5.7578568989501955C9.152249401574707,5.883725298950195,9.079819251574706,6.161375298950196,9.202950451574708,6.376091298950195L14.685907551574708,15.964228298950195C14.765587551574708,16.104928298950195,14.914067551574707,16.186428298950197,15.066167551574708,16.186428298950197C15.142217551574706,16.186428298950197,15.218277551574708,16.164228298950196,15.290697551574707,16.123428298950195C15.500747551574708,15.997628298950195,15.573177551574707,15.719928298950196,15.450047551574707,15.505228298950195L9.967088551574706,5.920745298950195C9.843957551574707,5.706028888950195,9.572344551574707,5.631988898950195,9.362296551574707,5.7578568989501955Z" fill="#C8FFE2" fill-opacity="1"/></g><g><path d="M5.658760963287354,21.152302857666015C5.455956683287353,21.289272857666017,5.394391063287354,21.566922857666015,5.528386863287354,21.777942857666016C5.615302963287354,21.911212857666015,5.756541963287353,21.985252857666016,5.901401963287354,21.985252857666016C5.9846969632873535,21.985252857666016,6.067990963287354,21.959332857666016,6.140421963287354,21.911212857666015L15.161590963287354,15.962095857666016C15.364400963287354,15.825120857666015,15.425960963287354,15.547470857666015,15.291970963287353,15.336458857666015C15.157970963287353,15.129144597666016,14.886360963287354,15.069912157666016,14.679930963287353,15.203183157666016L5.658760963287354,21.152302857666015ZM15.683070963287353,17.091202857666016C15.451310963287353,17.161542857666017,15.317320963287354,17.416982857666014,15.389750963287353,17.653912857666015L17.33447096328735,24.169432857666017C17.39247096328735,24.361942857666016,17.569870963287354,24.487802857666015,17.758170963287355,24.487802857666015C17.801670963287354,24.487802857666015,17.84517096328735,24.484102857666016,17.88497096328735,24.469292857666016C18.11677096328735,24.398962857666014,18.25077096328735,24.143522857666014,18.178270963287353,23.906592857666016L16.233570963287356,17.391062857666014C16.164770963287353,17.154142857666017,15.914870963287354,17.017162857666015,15.683070963287353,17.091202857666016Z" fill="#C8FFE2" fill-opacity="1"/></g></g><g><g><path d="M21.615121657104492,10.249900019989013C20.238951657104494,10.249900019989013,19.119901657104492,9.105980019989014,19.119901657104492,7.6992200199890135C19.119901657104492,6.292460019989013,20.238951657104494,5.148540019989014,21.615121657104492,5.148540019989014C22.99129165710449,5.148540019989014,24.11034165710449,6.292460019989013,24.11034165710449,7.6992200199890135C24.11034165710449,9.105980019989014,22.99129165710449,10.249900019989013,21.615121657104492,10.249900019989013ZM21.615121657104492,6.503470019989013C20.970491657104493,6.503470019989013,20.44537165710449,7.040260019989014,20.44537165710449,7.6992200199890135C20.44537165710449,8.358180019989014,20.970491657104493,8.894970019989014,21.615121657104492,8.894970019989014C22.25975165710449,8.894970019989014,22.784861657104493,8.358180019989014,22.784861657104493,7.6992200199890135C22.784861657104493,7.040260019989014,22.25975165710449,6.503470019989013,21.615121657104492,6.503470019989013Z" fill="#C8FFE2" fill-opacity="1"/></g><g><path d="M8.54510532333374,7.74734C6.55689532333374,7.74734,4.883759323333741,6.15919,4.76424982333374,4.10458C4.7026842233337405,3.07172,5.03948432333374,2.07588,5.7130843233337405,1.30216C6.38306532333374,0.528442,7.31016532333374,0.0656921,8.32419532333374,0.00646006C10.41379532333374,-0.115706,12.21006532333374,1.50947,12.33681532333374,3.64183C12.463575323333739,5.77418,10.866485323333741,7.61407,8.78050532333374,7.74364C8.69720532333374,7.74734,8.62115532333374,7.74734,8.54510532333374,7.74734ZM8.548725323333741,2.25728C8.51613532333374,2.25728,8.48353532333374,2.25728,8.450945323333741,2.26098C8.03084532333374,2.28689,7.64334532333374,2.4794,7.360865323333741,2.80147C7.08201532333374,3.12355,6.940775323333741,3.53817,6.96612532333374,3.9713C7.020445323333741,4.85978,7.773725323333741,5.54465,8.63926532333374,5.48912C9.05935532333374,5.46321,9.44685532333374,5.27071,9.72933532333374,4.94863C10.00819532333374,4.62656,10.149425323333741,4.21193,10.124075323333741,3.7788C10.09872532333374,3.34937,9.91041532333374,2.95325,9.59533532333374,2.6645C9.30199532333374,2.39795,8.93622532333374,2.25728,8.548725323333741,2.25728Z" fill="#C8FFE2" fill-opacity="1"/></g><g><path d="M17.49235948059082,28.71581282897949C18.72100948059082,29.362742828979492,20.22982948059082,28.867772828979493,20.861229480590822,27.610662828979493C21.49262948059082,26.353552828979492,21.007159480590822,24.811025828979492,19.77728948059082,24.16654982897949C18.54864948059082,23.51961082897949,17.039819480590822,24.014572828979492,16.40842148059082,25.271682828979493C15.77702048059082,26.528802828979494,16.26249048059082,28.071332828979493,17.49235948059082,28.71581282897949Z" fill="#C8FFE2" fill-opacity="1"/></g><g><path d="M28.086745521850585,23.01069141937256C27.090835521850586,23.01069141937256,26.145625521850587,22.62939141937256,25.414075521850584,21.92971141937256C24.649940521850585,21.20042141937256,24.211738321850586,20.208281419372558,24.179144711850586,19.14210141937256C24.146551121850585,18.07593141937256,24.519566521850585,17.05788141937256,25.233005521850586,16.27675141937256C25.946435521850585,15.495634419372559,26.917005521850587,15.047691919372559,27.959995521850587,15.014373869372559C29.010235521850586,14.977353819372558,29.998905521850585,15.362362419372559,30.763045521850586,16.09165141937256C31.527185521850587,16.82095141937256,31.965385521850585,17.813091419372558,31.997975521850584,18.879261419372558C32.06678552185058,21.08566141937256,30.371925521850585,22.93666141937256,28.213505521850585,23.006991419372557C28.173665521850587,23.006991419372557,28.130205521850584,23.01069141937256,28.086745521850585,23.01069141937256ZM28.090375521850586,17.26519141937256L28.032425521850584,17.26519141937256C27.576115521850586,17.28000141937256,27.156025521850587,17.476201419372558,26.844575521850587,17.81679141937256C26.533125521850586,18.15737141937256,26.370155521850585,18.597911419372558,26.384645521850587,19.06436141937256C26.399125521850586,19.530811419372558,26.591065521850584,19.960251419372558,26.924245521850587,20.27862141937256C27.257425521850585,20.596991419372557,27.688385521850584,20.763581419372557,28.144695521850586,20.74877141937256C29.082665521850586,20.71545141937256,29.821455521850588,19.91212141937256,29.792475521850587,18.94960141937256C29.777995521850585,18.483151419372557,29.586055521850586,18.053721419372557,29.252875521850587,17.73534141937256C28.934185521850587,17.43178141937256,28.524955521850586,17.26519141937256,28.090375521850586,17.26519141937256Z" fill="#C8FFE2" fill-opacity="1"/></g><g><path d="M3.90957,27.075498654785157C2.91366,27.075498654785157,1.96845,26.694188654785158,1.2369,25.994508654785157C0.472764,25.265218654785155,0.0345622,24.273078654785156,0.00196866,23.206898654785157C-0.0306249,22.140728654785157,0.34239,21.122678654785155,1.05583,20.341558654785157C1.76926,19.560431654785155,2.73983,19.112489254785157,3.78282,19.079171224785156C5.94486,19.012535154785155,7.75199,20.741368654785155,7.8208,22.947758654785154C7.88961,25.154158654785157,6.19474,27.005158654785156,4.03633,27.075498654785157L3.90957,27.075498654785157ZM3.91682,21.333688654785156L3.85887,21.333688654785156C3.40256,21.348498654785157,2.98247,21.544708654785158,2.67102,21.885288654785157C2.35957,22.225868654785156,2.1966,22.666408654785158,2.21109,23.132858654785156C2.22557,23.599318654785158,2.41751,24.028748654785154,2.75069,24.347118654785156C3.08387,24.665488654785158,3.51845,24.832078654785157,3.97114,24.817268654785156C4.90911,24.783958654785156,5.6479,23.980618654785157,5.61893,23.018098654785156C5.60444,22.551648654785158,5.4125,22.122218654785158,5.07932,21.803848654785156C4.76063,21.500278654785156,4.34778,21.333688654785156,3.91682,21.333688654785156Z" fill="#C8FFE2" fill-opacity="1"/></g></g></g></svg>