<svg xmlns="http://www.w3.org/2000/svg" xmlns:xlink="http://www.w3.org/1999/xlink" fill="none" version="1.1" width="8" height="11.428571701049805" viewBox="0 0 8 11.428571701049805"><g><path d="M0.260406,0.0698794C0.420942,-0.0302867,0.616525,-0.0222803,0.77038,0.0907554C0.77038,0.0907554,7.7704,5.23361,7.7704,5.23361C7.9135,5.33875,8,5.51985,8,5.71429C8,5.90874,7.9135,6.08983,7.7704,6.19497C7.7704,6.19497,0.77038,11.3378,0.77038,11.3378C0.616525,11.4509,0.420942,11.4589,0.260406,11.3587C0.0998695,11.2585,0,11.0662,0,10.8571C0,10.8571,0,0.571429,0,0.571429C0,0.362397,0.0998695,0.170045,0.260406,0.0698794C0.260406,0.0698794,0.260406,0.0698794,0.260406,0.0698794Z" fill-rule="evenodd" fill="#FFFFFF" fill-opacity="1"/></g></svg>