<svg xmlns="http://www.w3.org/2000/svg" xmlns:xlink="http://www.w3.org/1999/xlink" fill="none" version="1.1" width="27" height="29" viewBox="0 0 27 29"><g><path d="M4.80451,12.2376L8.62782,12.2376L7.81579,16.4539L10.6917,16.4539L11.4023,12.2376L14.1767,12.2376L13.4662,16.4539L16.3759,16.4539L17.0865,12.2376L20.1654,12.2376L20.5714,9.42671L17.5602,9.42671L18,7.09574L20.9436,7.09574L21.485,4.35343L18.5414,4.35343L19.2519,0L16.3759,0L15.6654,4.35343L12.688,4.35343L13.4662,0L10.6917,0L9.81203,4.35343L6.32707,4.35343L5.81955,7.09574L9.43985,7.09574L8.93233,9.42671L5.51504,9.42671L4.80451,12.2376ZM11.8759,9.42671L14.9211,9.42671L15.2932,7.09574L12.282,7.09574L11.8759,9.42671ZM7.88346,28.6572L7.88346,23.5496C7.88346,23.3603,8.03494,23.2069,8.2218,23.2069L12.0789,23.2069L12.0789,18.0993L14.9887,18.0993L14.9887,23.2069L18.5752,23.2069C18.7621,23.2069,18.9135,23.3603,18.9135,23.5496L18.9135,28.6572C18.9135,28.8465,18.7621,29,18.5752,29L8.2218,29C8.03494,29,7.88346,28.8465,7.88346,28.6572ZM0,27.4574L0,24.7494L6.90226,24.7494L6.90226,27.4574L0,27.4574ZM19.8609,27.4574L19.8609,24.7494L27,24.7494L27,27.4574L19.8609,27.4574Z" fill-rule="evenodd" fill="#FFFFFF" fill-opacity="1"/></g></svg>