<svg xmlns="http://www.w3.org/2000/svg" xmlns:xlink="http://www.w3.org/1999/xlink" fill="none" version="1.1" width="15" height="15" viewBox="0 0 15 15"><g><path d="M7.49497,0L7.49497,6.97987C7.19799,6.97987,6.95805,7.2198,6.95805,7.51678C6.95805,7.81376,7.19799,8.05369,7.49497,8.05369C7.79195,8.05369,8.03188,7.81376,8.03188,7.51678C8.03188,7.38758,7.98658,7.27013,7.91107,7.17785L13.3205,2.7953L13.3272,2.78859C13.3289,2.78859,13.3289,2.78691,13.3305,2.78691C11.9564,1.08725,9.8557,0,7.5,0L7.49497,0ZM13.6846,3.27517L13.6913,3.26846C14.5168,4.47315,14.9983,5.92953,15,7.5C15,11.6426,11.6426,15,7.5,15C3.35738,15,0,11.6409,0,7.5C0,3.55872,3.03859,0.328859,6.90101,0.0251678L6.90268,0.0436242L6.98658,1.09564C6.30034,1.14933,5.63423,1.31208,5,1.58054C4.23658,1.90436,3.54866,2.36745,2.95805,2.95805C2.36745,3.54698,1.90436,4.2349,1.58054,5C1.24497,5.79027,1.0755,6.63255,1.0755,7.5C1.0755,8.36745,1.24497,9.20805,1.58054,10C1.90436,10.7634,2.36745,11.4513,2.95805,12.0419C3.54698,12.6326,4.2349,13.0956,5,13.4195C5.79027,13.755,6.63255,13.9245,7.5,13.9245C8.36745,13.9245,9.20805,13.755,10,13.4195C10.7634,13.0956,11.4513,12.6326,12.0419,12.0419C12.6326,11.453,13.0956,10.7651,13.4195,10C13.755,9.20973,13.9245,8.36745,13.9245,7.5C13.9245,6.63255,13.755,5.79195,13.4195,5C13.2534,4.60403,13.047,4.22987,12.807,3.87752L13.6812,3.27685C13.6829,3.27685,13.6829,3.27517,13.6846,3.27517ZM10.1594,5.68792C10.5268,6.2198,10.7248,6.85067,10.7248,7.51174C10.7248,8.37248,10.3893,9.18121,9.78188,9.78859C9.1745,10.396,8.36577,10.7315,7.50503,10.7315C6.64429,10.7315,5.83557,10.396,5.22819,9.78859C4.62081,9.18121,4.28523,8.37248,4.28523,7.51174C4.28523,6.65101,4.62081,5.84228,5.22819,5.2349C5.77349,4.6896,6.47987,4.36409,7.23993,4.30201L7.15436,3.23154C4.94631,3.4094,3.21141,5.25839,3.21141,7.51174C3.21141,9.88255,5.13423,11.8054,7.50503,11.8054C9.87584,11.8054,11.7987,9.88255,11.7987,7.51174C11.7987,6.60906,11.5201,5.77349,11.0453,5.08221L10.1594,5.68792Z" fill-rule="evenodd" fill="#11AC80" fill-opacity="1" style="mix-blend-mode:passthrough"/></g></svg>