<svg xmlns="http://www.w3.org/2000/svg" xmlns:xlink="http://www.w3.org/1999/xlink" fill="none" version="1.1" width="16" height="16" viewBox="0 0 16 16"><g><path d="M16,9.38534L16,6.63963L14.2028,6.63963C14.0406,5.91576,13.7535,5.21685,13.3417,4.59282L14.6271,3.30733L12.6927,1.37286L11.4072,2.65835C10.7707,2.25897,10.0842,1.95944,9.36038,1.79719L9.36038,0L6.63963,0L6.63963,1.79719C5.91576,1.95944,5.21685,2.24649,4.59282,2.65835L3.30733,1.37286L1.37286,3.30733L2.65835,4.59282C2.25897,5.22933,1.95944,5.91576,1.79719,6.63963L0,6.63963L0,9.36038L1.79719,9.36038C1.95944,10.0842,2.24649,10.7832,2.65835,11.4072L1.37286,12.6927L3.30733,14.6271L4.59282,13.3417C5.22933,13.741,5.91576,14.0406,6.63963,14.2028L6.63963,16L9.36038,16L9.36038,14.2028C10.0842,14.0406,10.7832,13.7535,11.4072,13.3417L12.6927,14.6271L14.6271,12.6927L13.3417,11.4072C13.741,10.7707,14.0406,10.0842,14.2028,9.36038L16,9.38534ZM7.98752,12.5304C5.49142,12.5304,3.4571,10.4961,3.4571,8C3.4571,5.5039,5.49142,3.46958,7.98752,3.46958C10.4836,3.46958,12.5179,5.5039,12.5179,8C12.5179,10.4961,10.4836,12.5304,7.98752,12.5304Z" fill="#fff" fill-opacity="1"/></g></svg>